<svg width="26" height="26" viewBox="0 0 26 26" fill="none" xmlns="http://www.w3.org/2000/svg">
<path d="M21.8347 2.20982L14.0322 10.0353L3.71484 2.2061C5.31911 0.911461 7.33325 0.102307 9.52729 0H9.531L12.2406 4.70982C12.5188 5.19531 13.2162 5.19531 13.4962 4.70982L16.2021 0.009304C18.3294 0.146953 20.2768 0.948662 21.8365 2.20982H21.8347Z" fill="#D70000"/>
<path d="M8.28467 9.93471V15.7997L2.18105 21.9213C0.945855 20.3849 0.152068 18.4764 -0.00743087 16.3893V16.3856L4.76271 13.6252C5.24677 13.3462 5.24677 12.6468 4.76271 12.3659L-0.027832 9.59431C0.0704639 7.40495 0.869814 5.39416 2.15137 3.78516L8.28281 9.93471H8.28467Z" fill="#D70000"/>
<path d="M21.7957 23.486C20.2433 24.7341 18.309 25.5228 16.1984 25.6604L13.4925 20.9599C13.2143 20.4744 12.5169 20.4763 12.2369 20.9599L9.52723 25.6697H9.52352C7.34617 25.5674 5.34687 24.7694 3.74817 23.486L14.1898 15.8613L21.792 23.486H21.7957Z" fill="#D70000"/>
<path d="M20.9649 13.6236L25.5588 16.2817C25.4216 18.4097 24.6222 20.3591 23.3666 21.9198L16.1762 14.7081L18.2441 13.512C18.641 13.2814 18.641 12.7066 18.2441 12.4778L16.0111 11.185L23.3926 3.78174C24.6945 5.41492 25.4976 7.46291 25.5755 9.69505L20.963 12.3643C20.4789 12.6433 20.4808 13.3427 20.963 13.6236H20.9649Z" fill="#D70000"/>
</svg>
