<svg width="133" height="30" viewBox="0 0 133 30" fill="none" xmlns="http://www.w3.org/2000/svg">
<g clip-path="url(#clip0_1079_12054)">
<path d="M40.9468 3.56192L40.9226 3.48193H36.1488L29.8764 23.6791H32.8716L34.4091 18.5154H42.6048L44.1423 23.6791H47.1375L40.9486 3.56006L40.9468 3.56192ZM35.1584 16.008L38.506 4.7059L41.8555 16.008H35.1584Z" fill="white"/>
<path d="M54.749 21.1736V23.6811H53.0427C50.8431 23.6811 49.6302 22.5873 49.6302 20.6026V2.3418H52.2749V21.1736H54.749Z" fill="white"/>
<path d="M62.1175 21.1736V23.6811H60.4112C58.2116 23.6811 56.9987 22.5873 56.9987 20.6026V2.3418H59.6434V21.1736H62.1175Z" fill="white"/>
<path d="M69.345 8.61963C65.5727 8.61963 63.2303 11.0024 63.2303 14.838V17.7193C63.2303 21.5549 65.5727 23.9377 69.345 23.9377C73.1174 23.9377 75.4301 21.5549 75.4301 17.7193V14.838C75.4301 11.0024 73.0988 8.61963 69.345 8.61963ZM69.345 11.1289C70.9159 11.1289 72.7891 11.7725 72.7891 14.838V17.7193C72.7891 20.2844 71.7245 21.4284 69.345 21.4284C66.9655 21.4284 65.8713 20.2844 65.8713 17.7193V14.838C65.8713 12.4459 67.1046 11.1289 69.345 11.1289Z" fill="white"/>
<path d="M88.3755 8.61963C87.0142 8.61963 85.8198 8.99909 84.9036 9.71895V8.87819H82.2589V30.2175H84.9036V22.8421C85.8161 23.5601 87.0105 23.9414 88.3755 23.9414C92.1311 23.9414 94.4624 21.5586 94.4624 17.7231V14.8417C94.4624 11.0062 92.1293 8.62335 88.3755 8.62335V8.61963ZM88.3755 21.4303C86.3317 21.4303 84.9036 19.905 84.9036 17.7212V14.8399C84.9036 12.5166 86.2019 11.1308 88.3755 11.1308C89.9464 11.1308 91.8196 11.7744 91.8196 14.8399V17.7212C91.8196 19.9757 90.4675 21.4303 88.3755 21.4303Z" fill="white"/>
<path d="M102.686 21.1736V23.6811H100.98C98.78 23.6811 97.5671 22.5873 97.5671 20.6026V2.3418H100.212V21.1736H102.686Z" fill="white"/>
<path d="M113.356 8.87624V9.71701C112.443 8.99901 111.249 8.61768 109.884 8.61768C106.128 8.61768 103.797 11.0005 103.797 14.8361V17.7174C103.797 21.5529 106.13 23.9358 109.884 23.9358C111.247 23.9358 112.441 23.5563 113.356 22.8364V23.6772H116V8.87251H113.356V8.87624ZM109.884 11.1288C112.057 11.1288 113.356 12.5146 113.356 14.8379V17.7192C113.356 20.2155 112.219 21.4283 109.884 21.4283C107.549 21.4283 106.44 20.2843 106.44 17.7192V14.8379C106.44 11.7724 108.313 11.1288 109.884 11.1288Z" fill="white"/>
<path d="M133.028 8.87646L132.978 9.02527L125.784 30.2157H123.042L125.233 23.6811H123.172L123.148 23.6049L118.206 8.87646H121.203L121.229 8.95272L125.533 22.4907L130.029 8.87646H133.028Z" fill="white"/>
<path d="M21.8347 2.38658L14.0322 10.2121L3.71484 2.38286C5.31911 1.08822 7.33325 0.279064 9.52729 0.176758H9.531L12.2406 4.88658C12.5188 5.37207 13.2162 5.37207 13.4962 4.88658L16.2021 0.186062C18.3294 0.323711 20.2768 1.12542 21.8365 2.38658H21.8347Z" fill="#D70000"/>
<path d="M8.28468 10.1115V15.9764L2.18106 22.0981C0.94587 20.5616 0.152083 18.6531 -0.00741561 16.5661V16.5624L4.76272 13.8019C5.24678 13.5229 5.24678 12.8235 4.76272 12.5426L-0.0278168 9.77107C0.0704792 7.58171 0.869829 5.57092 2.15139 3.96191L8.28283 10.1115H8.28468Z" fill="#D70000"/>
<path d="M21.7957 23.6627C20.2434 24.9109 18.309 25.6995 16.1984 25.8372L13.4925 21.1367C13.2143 20.6512 12.517 20.653 12.2369 21.1367L9.52729 25.8465H9.52358C7.34623 25.7442 5.34693 24.9462 3.74823 23.6627L14.1899 16.0381L21.792 23.6627H21.7957Z" fill="#D70000"/>
<path d="M20.9649 13.8004L25.5588 16.4585C25.4216 18.5865 24.6222 20.5359 23.3666 22.0965L16.1762 14.8848L18.2441 13.6888C18.641 13.4581 18.641 12.8833 18.2441 12.6546L16.0111 11.3618L23.3926 3.9585C24.6945 5.59168 25.4976 7.63967 25.5755 9.87181L20.963 12.5411C20.4789 12.8201 20.4808 13.5195 20.963 13.8004H20.9649Z" fill="#D70000"/>
</g>
<defs>
<clipPath id="clip0_1079_12054">
<rect width="133" height="30" fill="white"/>
</clipPath>
</defs>
</svg>
