<svg width="17" height="38" viewBox="0 0 17 38" fill="none" xmlns="http://www.w3.org/2000/svg">
<path d="M12.4844 30.7082C12.4844 30.7082 14.6944 29.7308 15.3021 27.8498C15.912 25.9667 14.6923 23.8936 14.6923 23.8936C14.6923 23.8936 12.4823 24.871 11.8745 26.7541C11.2646 28.6351 12.4844 30.7082 12.4844 30.7082Z" fill="url(#paint0_linear_210_18549)"/>
<path d="M11.407 31.1599C11.407 31.1599 9.08437 31.8249 7.39712 30.7799C5.70987 29.7307 5.29762 27.3641 5.29762 27.3641C5.29762 27.3641 7.62025 26.6949 9.3075 27.7441C10.9947 28.7912 11.407 31.1578 11.407 31.1578V31.1599Z" fill="url(#paint1_linear_210_18549)"/>
<path d="M10.1469 24.0919C10.1469 24.0919 9.92162 21.7021 11.2731 20.2497C12.6225 18.7994 15.0408 18.8395 15.0408 18.8395C15.0408 18.8395 15.2681 21.2314 13.9166 22.6817C12.5651 24.132 10.1469 24.0919 10.1469 24.0919Z" fill="url(#paint2_linear_210_18549)"/>
<path d="M9.75376 11.0094C9.75376 11.0094 12.7011 9.7068 13.5129 7.19669C14.6816 3.59091 13.0645 0.787354 13.0645 0.787354C13.0645 0.787354 9.33088 1.83235 8.14938 5.48246C6.96788 9.13258 9.75376 11.0094 9.75376 11.0094Z" fill="url(#paint3_linear_210_18549)"/>
<path d="M8.57438 17.2012C8.57438 17.2012 4.82588 17.1548 2.79438 14.8452C0.765 12.5357 1.22613 8.83911 1.22613 8.83911C1.22613 8.83911 4.97675 8.88556 7.00612 11.1951C9.0355 13.5026 8.57863 17.2012 8.57863 17.2012H8.57438Z" fill="url(#paint4_linear_210_18549)"/>
<path d="M9.656 17.1358C9.656 17.1358 9.35425 13.948 11.1563 12.0121C12.9583 10.0783 16.1819 10.1332 16.1819 10.1332C16.1819 10.1332 16.4836 13.321 14.6816 15.2548C12.8796 17.1885 9.656 17.1358 9.656 17.1358Z" fill="url(#paint5_linear_210_18549)"/>
<path d="M9.39463 24.2841C9.39463 24.2841 6.22413 24.8625 4.12463 23.2496C2.03151 21.6367 1.79988 18.4426 1.79988 18.4426C1.79988 18.4426 4.97038 17.8621 7.06988 19.4771C9.16513 21.0878 9.39463 24.2841 9.39463 24.2841Z" fill="url(#paint6_linear_210_18549)"/>
<path fill-rule="evenodd" clip-rule="evenodd" d="M10.9756 5.01379C11.3029 5.06656 10.1639 11.4421 10.1086 11.7672C9.16937 17.3828 9.48174 27.2733 15.4169 35.9669C15.5045 36.0943 15.54 36.25 15.5164 36.4025C15.4927 36.555 15.4115 36.6929 15.2894 36.7881C15.2253 36.8373 15.1519 36.873 15.0735 36.893C14.9951 36.9129 14.9134 36.9168 14.8334 36.9044C14.7534 36.8919 14.6769 36.8634 14.6084 36.8205C14.5399 36.7777 14.481 36.7214 14.4351 36.6551C8.26412 27.6343 7.95387 17.3807 8.92499 11.5709C8.97812 11.2458 10.6484 4.9589 10.9756 5.01379Z" fill="url(#paint7_linear_210_18549)"/>
<defs>
<linearGradient id="paint0_linear_210_18549" x1="6.81275" y1="4.80067" x2="16.2527" y2="20.3239" gradientUnits="userSpaceOnUse">
<stop stop-color="#FFDB80"/>
<stop offset="1" stop-color="#AC9C71"/>
</linearGradient>
<linearGradient id="paint1_linear_210_18549" x1="6.81275" y1="4.80054" x2="16.2527" y2="20.3238" gradientUnits="userSpaceOnUse">
<stop stop-color="#FFDB80"/>
<stop offset="1" stop-color="#AC9C71"/>
</linearGradient>
<linearGradient id="paint2_linear_210_18549" x1="6.81275" y1="4.80058" x2="16.2527" y2="20.3238" gradientUnits="userSpaceOnUse">
<stop stop-color="#FFDB80"/>
<stop offset="1" stop-color="#AC9C71"/>
</linearGradient>
<linearGradient id="paint3_linear_210_18549" x1="6.81276" y1="4.80058" x2="16.2527" y2="20.3238" gradientUnits="userSpaceOnUse">
<stop stop-color="#FFDB80"/>
<stop offset="1" stop-color="#AC9C71"/>
</linearGradient>
<linearGradient id="paint4_linear_210_18549" x1="6.81275" y1="4.80056" x2="16.2527" y2="20.3238" gradientUnits="userSpaceOnUse">
<stop stop-color="#FFDB80"/>
<stop offset="1" stop-color="#AC9C71"/>
</linearGradient>
<linearGradient id="paint5_linear_210_18549" x1="6.81275" y1="4.80055" x2="16.2527" y2="20.3238" gradientUnits="userSpaceOnUse">
<stop stop-color="#FFDB80"/>
<stop offset="1" stop-color="#AC9C71"/>
</linearGradient>
<linearGradient id="paint6_linear_210_18549" x1="6.81276" y1="4.80062" x2="16.2527" y2="20.3239" gradientUnits="userSpaceOnUse">
<stop stop-color="#FFDB80"/>
<stop offset="1" stop-color="#AC9C71"/>
</linearGradient>
<linearGradient id="paint7_linear_210_18549" x1="6.81274" y1="4.80056" x2="16.2527" y2="20.3238" gradientUnits="userSpaceOnUse">
<stop stop-color="#FFDB80"/>
<stop offset="1" stop-color="#AC9C71"/>
</linearGradient>
</defs>
</svg>
