<svg width="17" height="38" viewBox="0 0 17 38" fill="none" xmlns="http://www.w3.org/2000/svg">
<path d="M4.51562 30.7082C4.51562 30.7082 2.30562 29.7308 1.69787 27.8498C1.088 25.9667 2.30775 23.8936 2.30775 23.8936C2.30775 23.8936 4.51775 24.871 5.1255 26.7541C5.73537 28.6351 4.51562 30.7082 4.51562 30.7082Z" fill="url(#paint0_linear_210_18561)"/>
<path d="M5.59299 31.1599C5.59299 31.1599 7.91561 31.8249 9.60286 30.7799C11.2901 29.7307 11.7024 27.3641 11.7024 27.3641C11.7024 27.3641 9.37974 26.6949 7.69249 27.7441C6.00524 28.7912 5.59299 31.1578 5.59299 31.1578V31.1599Z" fill="url(#paint1_linear_210_18561)"/>
<path d="M6.85314 24.0919C6.85314 24.0919 7.07839 21.7021 5.72689 20.2497C4.37752 18.7994 1.95926 18.8395 1.95926 18.8395C1.95926 18.8395 1.73189 21.2314 3.08339 22.6817C4.43489 24.132 6.85314 24.0919 6.85314 24.0919Z" fill="url(#paint2_linear_210_18561)"/>
<path d="M7.24624 11.0094C7.24624 11.0094 4.29887 9.7068 3.48712 7.19669C2.31837 3.59091 3.93549 0.787354 3.93549 0.787354C3.93549 0.787354 7.66912 1.83235 8.85062 5.48246C10.0321 9.13258 7.24624 11.0094 7.24624 11.0094Z" fill="url(#paint3_linear_210_18561)"/>
<path d="M8.42564 17.2012C8.42564 17.2012 12.1741 17.1548 14.2056 14.8452C16.235 12.5357 15.7739 8.83911 15.7739 8.83911C15.7739 8.83911 12.0233 8.88556 9.99389 11.1951C7.96452 13.5026 8.42139 17.2012 8.42139 17.2012H8.42564Z" fill="url(#paint4_linear_210_18561)"/>
<path d="M7.34401 17.1358C7.34401 17.1358 7.64576 13.948 5.84376 12.0121C4.04176 10.0783 0.81814 10.1332 0.81814 10.1332C0.81814 10.1332 0.51639 13.321 2.31839 15.2548C4.12039 17.1885 7.34401 17.1358 7.34401 17.1358Z" fill="url(#paint5_linear_210_18561)"/>
<path d="M7.60538 24.2841C7.60538 24.2841 10.7759 24.8625 12.8754 23.2496C14.9685 21.6367 15.2001 18.4426 15.2001 18.4426C15.2001 18.4426 12.0296 17.8621 9.93013 19.4771C7.83488 21.0878 7.60538 24.2841 7.60538 24.2841Z" fill="url(#paint6_linear_210_18561)"/>
<path fill-rule="evenodd" clip-rule="evenodd" d="M6.02437 5.01379C5.69712 5.06656 6.83612 11.4421 6.89137 11.7672C7.83062 17.3828 7.51824 27.2733 1.58312 35.9669C1.49551 36.0943 1.45995 36.25 1.48362 36.4025C1.5073 36.555 1.58844 36.6929 1.71062 36.7881C1.77466 36.8373 1.84813 36.873 1.92653 36.893C2.00493 36.9129 2.08661 36.9168 2.16657 36.9044C2.24654 36.8919 2.3231 36.8634 2.39159 36.8205C2.46007 36.7777 2.51903 36.7214 2.56487 36.6551C8.73587 27.6343 9.04612 17.3807 8.07499 11.5709C8.02187 11.2458 6.35162 4.9589 6.02437 5.01379Z" fill="url(#paint7_linear_210_18561)"/>
<defs>
<linearGradient id="paint0_linear_210_18561" x1="10.1872" y1="4.80067" x2="0.74728" y2="20.3239" gradientUnits="userSpaceOnUse">
<stop stop-color="#FFDB80"/>
<stop offset="1" stop-color="#AC9C71"/>
</linearGradient>
<linearGradient id="paint1_linear_210_18561" x1="10.1872" y1="4.80054" x2="0.747264" y2="20.3238" gradientUnits="userSpaceOnUse">
<stop stop-color="#FFDB80"/>
<stop offset="1" stop-color="#AC9C71"/>
</linearGradient>
<linearGradient id="paint2_linear_210_18561" x1="10.1873" y1="4.80058" x2="0.747294" y2="20.3238" gradientUnits="userSpaceOnUse">
<stop stop-color="#FFDB80"/>
<stop offset="1" stop-color="#AC9C71"/>
</linearGradient>
<linearGradient id="paint3_linear_210_18561" x1="10.1872" y1="4.80058" x2="0.747272" y2="20.3238" gradientUnits="userSpaceOnUse">
<stop stop-color="#FFDB80"/>
<stop offset="1" stop-color="#AC9C71"/>
</linearGradient>
<linearGradient id="paint4_linear_210_18561" x1="10.1873" y1="4.80056" x2="0.747292" y2="20.3238" gradientUnits="userSpaceOnUse">
<stop stop-color="#FFDB80"/>
<stop offset="1" stop-color="#AC9C71"/>
</linearGradient>
<linearGradient id="paint5_linear_210_18561" x1="10.1873" y1="4.80055" x2="0.74729" y2="20.3238" gradientUnits="userSpaceOnUse">
<stop stop-color="#FFDB80"/>
<stop offset="1" stop-color="#AC9C71"/>
</linearGradient>
<linearGradient id="paint6_linear_210_18561" x1="10.1873" y1="4.80062" x2="0.747287" y2="20.3239" gradientUnits="userSpaceOnUse">
<stop stop-color="#FFDB80"/>
<stop offset="1" stop-color="#AC9C71"/>
</linearGradient>
<linearGradient id="paint7_linear_210_18561" x1="10.1872" y1="4.80056" x2="0.747268" y2="20.3238" gradientUnits="userSpaceOnUse">
<stop stop-color="#FFDB80"/>
<stop offset="1" stop-color="#AC9C71"/>
</linearGradient>
</defs>
</svg>
