<svg width="32" height="32" viewBox="0 0 32 32" fill="none" xmlns="http://www.w3.org/2000/svg">
<path d="M18.6667 19.752V12.2493C18.6667 8.05567 18.6667 5.95887 17.4329 5.43705C16.1992 4.91523 14.7472 6.39789 11.8431 9.36321C10.3392 10.8988 9.48115 11.2389 7.3414 11.2389C5.47012 11.2389 4.53447 11.2389 3.86236 11.6975C2.46715 12.6494 2.67805 14.51 2.67805 16.0007C2.67805 17.4913 2.46715 19.3519 3.86236 20.3038C4.53447 20.7624 5.47012 20.7624 7.3414 20.7624C9.48115 20.7624 10.3392 21.1025 11.8431 22.6381C14.7472 25.6034 16.1992 27.0861 17.4329 26.5643C18.6667 26.0424 18.6667 23.9456 18.6667 19.752Z" stroke="white" stroke-width="1.5" stroke-linecap="round" stroke-linejoin="round"/>
<path d="M24 13.334L29.3333 18.6673M24 18.6673L29.3333 13.334" stroke="white" stroke-width="1.5" stroke-linecap="round"/>
</svg>
